<svg xmlns="http://www.w3.org/2000/svg" aria-hidden="true" style="position:absolute;width:0;height:0;overflow:hidden"><defs><symbol id="icon-icon-phone" viewBox="0 0 23 32"><path fill="#757575" d="M19.429 0h-16C1.538 0 0 1.346 0 3v26c0 1.654 1.538 3 3.429 3h16c1.891 0 3.429-1.346 3.429-3V3c0-1.654-1.538-3-3.429-3zm-16 2h16c.631 0 1.143.448 1.143 1v21H2.286V3c0-.552.512-1 1.143-1zm16 28h-16c-.631 0-1.143-.448-1.143-1v-3h18.286v3c0 .552-.512 1-1.143 1z" style="fill:var(--color1, #757575)"/><path fill="#757575" d="M5.38 27.293c.446.391.446 1.025 0 1.416s-1.17.391-1.616 0c-.446-.391-.446-1.025 0-1.416s1.17-.391 1.616 0z" style="fill:var(--color1, #757575)"/></symbol></defs></svg>